<svg xmlns="http://www.w3.org/2000/svg" width="348.489" height="195.166" viewBox="0 0 348.489 195.166"><path d="M733.953,357.618h-6.624a.852.852,0,0,1-.851-.772l-1.326-13.59H736.13l-1.326,13.59A.852.852,0,0,1,733.953,357.618Z" transform="translate(-492.263 -295.692)" fill="#e6e6e6"/><path d="M735.163,342.639H724.22a.856.856,0,0,1-.855-.855v-2.052a.856.856,0,0,1,.855-.855h10.942a.856.856,0,0,1,.855.855v2.052A.856.856,0,0,1,735.163,342.639Z" transform="translate(-491.313 -293.365)" fill="#ccc"/><path d="M548.79,329.079H522.549v-7.966c8.292-5.771,15.639-5.269,25.3.469Z" transform="translate(-384.597 -281.752)" fill="#fff"/><path d="M273.944,377.827H268.2l-.859-22.158h6.6Z" transform="translate(-142.068 -189.007)" fill="#ffb8b8"/><path d="M491.7,648.148H473.176v-.234a7.21,7.21,0,0,1,7.21-7.21H491.7Z" transform="translate(-358.359 -453.759)" fill="#2f2e41"/><path d="M350.485,377.827h5.745l.859-22.158h-6.6Z" transform="translate(-186.252 -189.007)" fill="#ffb8b8"/><path d="M575.507,640.7h11.314a7.21,7.21,0,0,1,7.21,7.21v.234H575.507Z" transform="translate(-412.739 -453.759)" fill="#2f2e41"/><path d="M532.292,546.375a2.118,2.118,0,0,1-2.059-1.651l-14.239-62.106a.683.683,0,0,0-.686-.55h0a.683.683,0,0,0-.684.557l-13.075,61.688a2.119,2.119,0,0,1-2.063,1.671h-6.229a2.109,2.109,0,0,1-2.1-2.233l4.639-78.186,1.867-.552h.035l36.671.321,7.81,78.1a2.107,2.107,0,0,1-1.929,2.306l-7.78.628Q532.376,546.375,532.292,546.375Z" transform="translate(-367.908 -360.395)" fill="#2f2e41"/><circle cx="11.509" cy="11.509" r="11.509" transform="translate(137.732 10.032)" fill="#ffb8b8"/><path d="M515.5,397.047a19.863,19.863,0,0,1-5.964-.839,13.166,13.166,0,0,1-7.984-6.736,2.111,2.111,0,0,1-.157-1.572c1.269-4.332,7.4-26.85,3.489-44.751a18.971,18.971,0,0,1,2.7-14.58,18.732,18.732,0,0,1,12.149-8.171h0c.649-.127,1.3-.231,1.94-.309a18.667,18.667,0,0,1,15.116,4.973,19.128,19.128,0,0,1,6.005,15.164l-3.008,48.266a2.09,2.09,0,0,1-1.124,1.735C535.2,392.041,524.791,397.047,515.5,397.047Z" transform="translate(-373.311 -283.305)" fill="#3f3d56"/><path d="M544.674,259.54a14.131,14.131,0,0,0-15.488-8.708l3.629,2.932c-4.509.152-9.254-.171-12.474,2.989,1.025-.028,2.368,2.164,3.393,2.135a5.374,5.374,0,0,0-4.5,3.1,8.84,8.84,0,0,0-.522,5.622c.378,1.879,3.265,6.28,4.042,8.032-.134-4.578,8.879-15.5,13.281-14.359a12.076,12.076,0,0,0-5.576,4.234,16.355,16.355,0,0,1,9.7-1.587,6.867,6.867,0,0,0,2.313.129,2.823,2.823,0,0,0,1.674-4.512Z" transform="translate(-382.431 -246.47)" fill="#2f2e41"/><path d="M502.739,395.882a2.111,2.111,0,0,1-.844-.178l-21.836-9.531a2.1,2.1,0,0,1-1.2-2.473l14.456-54.609a7.9,7.9,0,0,1,9.813-5.578l5.78,1.65L504.842,393.9a2.114,2.114,0,0,1-1.006,1.673A2.093,2.093,0,0,1,502.739,395.882Z" transform="translate(-361.342 -285.039)" fill="#fff"/><path d="M582.075,383.7l-.961-3.622-1.392-5.267-.67-2.526-1.392-5.253-10.042-37.941a7.894,7.894,0,0,0-9.812-5.576l-5.778,1.649,2.863,48.344.3,5.047.187,3.182v0l.3,5.019.422,7.137a2.123,2.123,0,0,0,2.1,1.987,2.146,2.146,0,0,0,.844-.178l21.836-9.531a2.093,2.093,0,0,0,1.2-2.474Z" transform="translate(-400.263 -285.037)" fill="#fff"/><path d="M354.15,180.233l-23.865,6.27-.3-5.047,22.769-6.476Z" transform="translate(-175.361 -92.987)" fill="#ccc"/><path d="M356.76,196.847l-25.44,6.682-.3-5.019v0l24.348-6.926Z" transform="translate(-175.909 -101.808)" fill="#ccc"/><path d="M281.3,182.952l-.3,4.953L257.6,180.933l1.372-5.183Z" transform="translate(-136.893 -93.396)" fill="#ccc"/><path d="M278.5,199.908,254.613,192.2l-1.373,5.2,24.966,7.436Z" transform="translate(-134.575 -102.138)" fill="#ccc"/><path d="M477.981,411.674a5.034,5.034,0,0,0,3.3-6.978l11.228-35.25-7.962-1.668-10.294,34.56a5.061,5.061,0,0,0,3.727,9.335Z" transform="translate(-357.526 -308.724)" fill="#ffb8b8"/><path d="M503.667,334.337h0c2.286.233,3.572,2.8,3,6L503.943,355.7c-.2,1.151-1.152,2.063-1.94,1.866l-9.227-2.306c-.71-.177-.971-1.186-.569-2.2l5.539-13.9C498.95,336.152,501.451,334.11,503.667,334.337Z" transform="translate(-368.372 -290.943)" fill="#3f3d56"/><path d="M529.544,241.75h0a14.991,14.991,0,0,1,14.983,14.525l2.824,0a.937.937,0,0,1,.937.937v3.749a.937.937,0,0,1-.937.937H515.486a.937.937,0,0,1-.937-.937v-4.217a15,15,0,0,1,14.995-14.995Z" transform="translate(-380.345 -241.75)" fill="#fff"/><path d="M540.392,423.268h-6.623a.852.852,0,0,1-.851-.772l-1.326-13.59h10.977l-1.326,13.59A.852.852,0,0,1,540.392,423.268Z" transform="translate(-389.402 -330.579)" fill="#e6e6e6"/><path d="M541.6,408.289H530.66a.856.856,0,0,1-.855-.855v-2.052a.856.856,0,0,1,.855-.855H541.6a.856.856,0,0,1,.855.855v2.052a.856.856,0,0,1-.855.855Z" transform="translate(-388.452 -328.252)" fill="#ccc"/><path d="M537.427,397.714a4.933,4.933,0,0,1,.762.15l17.64-15.128-1.031-5.551,8.173-2.651,2.78,9.649a3.749,3.749,0,0,1-1.6,4.206l-22.341,14.137a4.919,4.919,0,1,1-4.387-4.812Z" transform="translate(-389.606 -312.313)" fill="#ffb8b8"/><path d="M578.5,336.9h0c2.442-.684,4.882,1.175,5.7,4.342l3.924,15.2c.294,1.139-.277,2.35-1.169,2.478l-10.453,1.5c-.8.116-1.513-.709-1.542-1.8l-.406-14.954C574.464,340.426,576.131,337.566,578.5,336.9Z" transform="translate(-412.23 -292.241)" fill="#3f3d56"/><path d="M869.894,507.312a78.5,78.5,0,0,1-11.281-21.054,2.016,2.016,0,0,1,.952-2.427l16.469-8.824a1.99,1.99,0,0,1,1.746-.071,2.024,2.024,0,0,1,1.153,1.351,47.951,47.951,0,0,0,10.518,19.629,2.023,2.023,0,0,1,.486,1.709,1.99,1.99,0,0,1-1.026,1.414l-16.469,8.824A2.016,2.016,0,0,1,869.894,507.312Z" transform="translate(-563.128 -365.579)" fill="#ccc"/><path d="M872.611,508.062a.608.608,0,0,0,.76.157l16.469-8.824a.584.584,0,0,0,.306-.42.618.618,0,0,0-.152-.529,49.36,49.36,0,0,1-10.828-20.208.618.618,0,0,0-.355-.419.584.584,0,0,0-.52.021l-16.468,8.824a.608.608,0,0,0-.29.72,77.084,77.084,0,0,0,11.079,20.678Z" transform="translate(-564.721 -367.173)" fill="#fff"/><path d="M885.558,498.53l-8.969,3.959a1.407,1.407,0,0,1-1.854-.718l-.222-.5a1.407,1.407,0,0,1,.718-1.854l8.969-3.959a1.407,1.407,0,0,1,1.854.718l.222.5A1.407,1.407,0,0,1,885.558,498.53Z" transform="translate(-571.572 -376.509)" fill="#ccc"/><path d="M892.558,511.529l-8.969,3.959a1.407,1.407,0,0,1-1.854-.718l-.222-.5a1.407,1.407,0,0,1,.718-1.854l8.969-3.959a1.407,1.407,0,0,1,1.854.718l.222.5A1.407,1.407,0,0,1,892.558,511.529Z" transform="translate(-575.292 -383.417)" fill="#ccc"/><path d="M854.941,434.757a5.034,5.034,0,0,1-.966-7.658l-3.783-53.68,10.9,1.057.3,52.569a5.061,5.061,0,0,1-6.446,7.712Z" transform="translate(-558.711 -311.721)" fill="#a0616a"/><path d="M853.552,386.745a2.1,2.1,0,0,1-.871-1.594l-.8-14.468a5.81,5.81,0,0,1,11.408-1.84l3.507,12.935a2.111,2.111,0,0,1-1.483,2.587l-9.976,2.7a2.1,2.1,0,0,1-1.786-.325Z" transform="translate(-559.604 -307.009)" fill="#3f3d56"/><path d="M578.062,378.278h-5.745l-2.733-22.159h8.479Z" transform="translate(-302.685 -189.247)" fill="#a0616a"/><path d="M558.748,399.9h11.079v6.976H551.772a6.976,6.976,0,0,1,6.976-6.976Z" transform="translate(-293.219 -212.515)" fill="#2f2e41"/><path d="M624.062,378.278h-5.745l-2.733-22.159h8.479Z" transform="translate(-327.13 -189.247)" fill="#a0616a"/><path d="M604.748,399.9h11.079v6.976H597.772a6.976,6.976,0,0,1,6.976-6.976Z" transform="translate(-317.664 -212.515)" fill="#2f2e41"/><path d="M803.192,543.645l-6.324-.3a2.108,2.108,0,0,1-2.008-2.091c-1.667-25.734-3.976-53.328-.441-63.989a2.109,2.109,0,0,1,2.412-2.1l25.3,3.673a2.1,2.1,0,0,1,1.806,2.071c3.23,12.622,3.376,35.51,3.254,59.292a2.109,2.109,0,0,1-2.109,2.125h-6.818a2.1,2.1,0,0,1-2.083-1.781L811.974,513.8a1.64,1.64,0,0,0-3.249.06l-3.339,27.929a2.117,2.117,0,0,1-2.094,1.858Z" transform="translate(-528.086 -365.776)" fill="#2f2e41"/><path d="M808.959,413.674a31.829,31.829,0,0,0-12.033-4.122,2.07,2.07,0,0,1-1.431-.784,2.1,2.1,0,0,1-.436-1.594l6.062-45.008A15.566,15.566,0,0,1,810.195,350a15.138,15.138,0,0,1,14.711,1.153q.312.207.612.423a15.547,15.547,0,0,1,5.921,16.2c-3.718,15.208-4.994,40.14-5.213,44.984a2.092,2.092,0,0,1-1.367,1.877,21.125,21.125,0,0,1-7.135,1.27A17.866,17.866,0,0,1,808.959,413.674Z" transform="translate(-529.402 -298.542)" fill="#3f3d56"/><circle cx="11.509" cy="11.509" r="11.509" transform="translate(273.119 22.332)" fill="#a0616a"/><path d="M828.678,304.247a3.717,3.717,0,0,1-6.414-2.065,3.782,3.782,0,0,1,0-.729c.144-1.384.944-2.641.753-4.1a2.152,2.152,0,0,0-.394-1.007c-1.711-2.291-5.727,1.025-7.342-1.049-.99-1.272.174-3.274-.586-4.7-1-1.876-3.973-.951-5.836-1.978-2.073-1.143-1.949-4.323-.584-6.257a9.842,9.842,0,0,1,7.461-3.8,20.015,20.015,0,0,1,8.431,1.645c3.056,1.191,6.086,2.837,7.966,5.523,2.287,3.268,2.507,7.66,1.363,11.481C832.805,299.54,830.431,302.379,828.678,304.247Z" transform="translate(-535.905 -261.3)" fill="#2f2e41"/><path d="M824.9,351.285c-.2-.947-1.931-2.24-4.4-3.294a27.241,27.241,0,0,0-24.6,2.109,1.162,1.162,0,0,0-1.073.914l-8.322,36.807-1.082,4.794-.717,3.172-1.082,4.78-.576,2.554a1.175,1.175,0,0,0,1.04,1.429l35.936,3.1c.033,0,.07,0,.1,0a1.172,1.172,0,0,0,1.162-1.1l.342-5.206.366-5.567.159-2.413.361-5.553,2.394-36.475v-.033Z" transform="translate(-523.008 -297.149)" fill="#fff"/><path d="M735.556,357.92a4.931,4.931,0,0,1,.112.768L755.8,370.3l4.893-2.817,5.216,6.828-10.467,7.46-22.964-18.117a4.918,4.918,0,1,1,3.081-5.736Z" transform="translate(-492.634 -301.468)" fill="#a0616a"/><path d="M791.281,371.046a2.1,2.1,0,0,1,.606-1.712l10.245-10.247a5.81,5.81,0,0,1,8.982,7.271l-7.3,11.242a2.111,2.111,0,0,1-2.917.621l-8.671-5.627A2.1,2.1,0,0,1,791.281,371.046Z" transform="translate(-527.398 -303.2)" fill="#3f3d56"/><path d="M597.083,193.5l-.361,5.553-36.733-.759,1.082-4.794Z" transform="translate(-297.586 -102.829)" fill="#ccc"/><path d="M594.523,210.5l-.366,5.567-38.007-.787,1.083-4.78Z" transform="translate(-295.546 -111.863)" fill="#ccc"/><path d="M814.792,266.25h0a14.991,14.991,0,0,0-14.983,14.525l-2.824,0a.937.937,0,0,0-.937.937v3.749a.937.937,0,0,0,.937.937H828.85a.937.937,0,0,0,.937-.937v-4.217a15,15,0,0,0-14.995-14.995Z" transform="translate(-529.938 -254.77)" fill="#fff"/><path d="M299.906,530.094a18.3,18.3,0,0,1-17.676-3.114c-6.191-5.2-8.132-13.757-9.711-21.684l-4.671-23.446,9.78,6.734c7.033,4.843,14.225,9.841,19.095,16.856s7,16.59,3.083,24.18" transform="translate(-249.245 -369.343)" fill="#e6e6e6"/><path d="M318.591,592.262c.99-7.21,2.008-14.513,1.313-21.8a34.288,34.288,0,0,0-6.611-17.977,29.9,29.9,0,0,0-7.673-6.953c-.767-.484-1.473.732-.71,1.214a28.43,28.43,0,0,1,11.246,13.569c2.448,6.227,2.841,13.016,2.42,19.631-.255,4-.8,7.975-1.341,11.944a.728.728,0,0,0,.491.865A.707.707,0,0,0,318.591,592.262Z" transform="translate(-268.766 -403.124)" fill="#f2f2f2"/><path d="M268.438,601.612a13.474,13.474,0,0,1-11.74,6.059c-5.943-.282-10.9-4.43-15.358-8.368l-13.192-11.648,8.731-.418c6.279-.3,12.72-.581,18.7,1.356s11.5,6.6,12.589,12.786" transform="translate(-228.148 -425.233)" fill="#e6e6e6"/><path d="M307.31,629.556c-4.764-8.43-10.291-17.8-20.165-20.795a22.5,22.5,0,0,0-8.482-.876c-.9.078-.676,1.466.223,1.388a20.906,20.906,0,0,1,13.536,3.581,35.184,35.184,0,0,1,9.3,10.04c1.541,2.346,2.921,4.792,4.3,7.234.441.781,1.73.217,1.284-.572Z" transform="translate(-254.687 -436.274)" fill="#f2f2f2"/><path d="M591.954,657.187H258.321a.469.469,0,1,1,0-.937H591.954a.469.469,0,1,1,0,.937Z" transform="translate(-243.933 -462.021)" fill="#ccc"/></svg>