<svg xmlns="http://www.w3.org/2000/svg" width="248.727" height="192.208" viewBox="0 0 248.727 192.208"><g transform="translate(-68.894 0)"><path d="M386.7,568.382h-2.729c-.306-.348-.6-.7-.89-1.054a58.169,58.169,0,0,1-12.244-26.163,56.758,56.758,0,0,1,4.894-35.325,58.078,58.078,0,0,1,5.289-8.756c.716.153,1.423.327,2.118.537a54.9,54.9,0,0,0,2.619,69.707C386.065,567.681,386.381,568.035,386.7,568.382Z" transform="translate(-301.009 -376.174)" fill="#fff"/><path d="M546.112,461.795H495.545l-.536-15.548a4.668,4.668,0,0,1,5.232-4.794l29.427,3.6h0a16.485,16.485,0,0,1,16.441,16.474Z" transform="translate(-360.202 -349.836)" fill="#6c63ff"/><path d="M514.349,375.414H479.082a3.571,3.571,0,0,0-3.571,3.571v35.268a3.57,3.57,0,0,0,3.571,3.571h35.268a3.571,3.571,0,0,0,3.572-3.571V378.985a3.57,3.57,0,0,0-3.572-3.571Z" transform="translate(-350.978 -318.605)" fill="#ccc"/><path d="M513.991,412.815l-16.652,3.243a3.8,3.8,0,0,1-4.45-3l-1.28-6.573a3.8,3.8,0,0,1,3-4.45l16.652-3.243a3.8,3.8,0,0,1,4.45,3l1.28,6.573A3.8,3.8,0,0,1,513.991,412.815Z" transform="translate(-358.562 -329.634)" fill="#3f3d56"/><path d="M515.463,409.143l-12.708,2.475a.893.893,0,1,1-.341-1.753l12.708-2.475a.893.893,0,0,1,.341,1.753Z" transform="translate(-363.365 -333.727)" fill="#fff"/><path d="M516.285,416.1l-6.573,1.28a.893.893,0,0,1-.341-1.753l6.573-1.28a.893.893,0,1,1,.341,1.753Z" transform="translate(-366.657 -337.018)" fill="#fff"/><path d="M517.921,378.986v4.688H475.51v-4.687a3.571,3.571,0,0,1,3.571-3.572h35.268A3.57,3.57,0,0,1,517.921,378.986Z" transform="translate(-350.978 -318.605)" fill="#b3b3b3"/><path d="M664.076,375.231a5.66,5.66,0,0,0-8-3.353L607.551,354.47l-2.137,12.121,48.366,13.3a5.69,5.69,0,0,0,10.3-4.66Z" transform="translate(-412.443 -308.695)" fill="#ffb8b8"/><path d="M664.076,375.231a5.66,5.66,0,0,0-8-3.353L607.551,354.47l-2.137,12.121,48.366,13.3a5.69,5.69,0,0,0,10.3-4.66Z" transform="translate(-412.443 -308.695)" opacity="0.2"/><path d="M604.4,352.719l-4.582,11.97a2.538,2.538,0,0,1-3.615,1.3l-11.135-6.268a7.048,7.048,0,0,1,5.077-13.149l12.435,2.758a2.538,2.538,0,0,1,1.82,3.385Z" transform="translate(-400.683 -304.736)" fill="#6c63ff"/><path d="M708.4,414.914l-17.386,7.9,2.282,8.593a133.678,133.678,0,0,1,3.446,50.919h0l12.711,2.655,10.537-26.869L716.3,427.558Z" transform="translate(-452.943 -337.295)" fill="#6c63ff"/><path d="M769.735,490.414c-11.423,0-20.732,8.3-21.184,18.7h42.368C790.467,498.718,781.158,490.414,769.735,490.414Z" transform="translate(-480.169 -373.018)" fill="#3f3d56"/><path d="M615.688,455.443c-.594-46.941-27.328-42.622-27.328-42.622s.5,14.611.74,15.065c17.036,32.232-11.079,70.02-46.868,63.068q-1.012-.2-1.945-.4a18.219,18.219,0,0,1-14.311-20.422c3.526-28.31-14.009-27.809-14.009-27.809H486.328L473.013,430.34a3.871,3.871,0,0,0-6.221,1.539l-1.713,4.649s-25.289,2.634-23.181,27.4h7.818a15.8,15.8,0,0,0,.084,2.107l58.348-.474a6.386,6.386,0,0,1,6.453,6.164,6.192,6.192,0,0,1-6.4,6.215l-9.407-.314c-2.9,12.908,4.215,21.6,12.052,27.067a43.806,43.806,0,0,0,25.087,7.705h25.556c33.191,0,38.986-27.923,38.986-27.923C617.863,477.1,615.688,455.443,615.688,455.443Z" transform="translate(-335.015 -336.255)" fill="#3f3d56"/><circle cx="29.635" cy="29.635" r="29.635" transform="translate(258.351 132.148)" fill="#3f3d56"/><circle cx="14.263" cy="14.263" r="14.263" transform="translate(273.722 147.519)" fill="#fff"/><circle cx="34.113" cy="34.113" r="34.113" transform="translate(104.249 123.191)" fill="#3f3d56"/><circle cx="21.361" cy="21.361" r="21.361" transform="translate(117.001 135.943)" fill="#fff"/><path d="M685.087,404.171l-6.256-16.991a7.186,7.186,0,0,1,4.261-9.225l17.934-6.6a12.643,12.643,0,1,1,8.738,23.728Z" transform="translate(-446.97 -316.313)" fill="#3f3d56"/><path d="M738.416,383.456a12.407,12.407,0,0,1-4.636,9.662A15.8,15.8,0,0,1,723.4,371.36a12.384,12.384,0,0,1,15.015,12.1Z" transform="translate(-467.611 -316.553)" fill="#6c63ff"/><ellipse cx="7.376" cy="8.956" rx="7.376" ry="8.956" transform="translate(103.986 113.181)" fill="#6c63ff"/><path d="M450.07,276.96h6.459l3.073-16.752h-9.533Z" transform="translate(-241.211 -123.119)" fill="#ffb8b8"/><path d="M632.444,555.588h12.721a8.106,8.106,0,0,1,8.106,8.106v.263H632.444Z" transform="translate(-425.232 -403.855)" fill="#2f2e41"/><path d="M610.607,491.762c-.075,0-.151,0-.227-.011l-8.939-.651a2.371,2.371,0,0,1-2.007-3.177L611.4,461.047a1.842,1.842,0,0,0-.1-1.474,1.818,1.818,0,0,0-1.165-.927c-5.625-1.47-20.058-5.386-32.552-9.967-5.353-1.963-8.724-4.8-10.02-8.43a11.9,11.9,0,0,1,.928-9.337l.085-.143,11.756,1.069,12.745,1.084L621,447.9a10.582,10.582,0,0,1,4.646,13.584l-12.876,28.875A2.369,2.369,0,0,1,610.607,491.762Z" transform="translate(-394.251 -344.796)" fill="#2f2e41"/><circle cx="12.94" cy="12.94" r="12.94" transform="translate(175.18 7.986)" fill="#ffb8b8"/><path d="M443.07,279.96h6.459l3.073-16.752h-9.533Z" transform="translate(-237.898 -124.539)" fill="#ffb8b8"/><path d="M625.444,558.588h12.721a8.106,8.106,0,0,1,8.106,8.106v.263H625.444Z" transform="translate(-421.92 -405.275)" fill="#2f2e41"/><path d="M603.607,494.761q-.113,0-.227-.011l-8.939-.651a2.371,2.371,0,0,1-2.007-3.176L604.4,464.047a1.843,1.843,0,0,0-.1-1.475,1.818,1.818,0,0,0-1.165-.927c-5.625-1.47-20.058-5.386-32.552-9.967-5.353-1.963-8.724-4.8-10.02-8.43a11.9,11.9,0,0,1,.927-9.337l.085-.144,11.756,1.069,12.745,1.084L614,450.9a10.582,10.582,0,0,1,4.646,13.584l-12.876,28.875A2.369,2.369,0,0,1,603.607,494.761Z" transform="translate(-390.939 -346.216)" fill="#2f2e41"/><path d="M584.617,341.536l-13.7-4.742s-8.6,6.607-4.468,23a40.574,40.574,0,0,1-1.791,25.457,26.234,26.234,0,0,1-1.38,2.914s15.279,18.44,29.5,4.742L587.251,366.3S595.944,348.648,584.617,341.536Z" transform="translate(-392.507 -300.332)" fill="#6c63ff"/><path d="M580.67,301.892c-1.842-2.757-3.3-6.579-1.268-9.2,2-2.589,5.949-2.208,9.015-3.353,4.27-1.6,6.746-6.612,5.974-11.1a13.174,13.174,0,0,0-8.674-9.74,18.781,18.781,0,0,0-13.347.726,20.38,20.38,0,0,0-11.483,11.631c-1.863,5.293-.867,11.647,3,15.716,4.143,4.361,10.645,5.524,16.66,5.453" transform="translate(-390.944 -267.586)" fill="#2f2e41"/><path d="M522.656,281.736c-2.321,1.889-5.861,1.05-8.352-.608s-4.512-4.019-7.208-5.319c-4.752-2.292-10.5-.768-15.121,1.77s-8.724,6.046-13.609,8.038-11.119,2.091-14.817-1.671a13.557,13.557,0,0,0,19.867,16c5.352-3.26,8.309-10.1,14.312-11.9,3.322-1,6.889-.194,10.247.675s6.858,1.807,10.247,1.068,6.558-3.784,6.127-7.225Z" transform="translate(-344.967 -270.945)" fill="#2f2e41"/><path d="M662.3,380.637a5.66,5.66,0,0,0-8.357-2.34l-50.3-11.289-.625,12.292,49.637,7.231a5.69,5.69,0,0,0,9.642-5.895Z" transform="translate(-411.309 -314.628)" fill="#ffb8b8"/><path d="M599.7,365.066l-3.07,12.444a2.538,2.538,0,0,1-3.426,1.74L581.375,374.4a7.048,7.048,0,0,1,3.416-13.675l12.68,1.2a2.537,2.537,0,0,1,2.224,3.134Z" transform="translate(-398.541 -311.557)" fill="#6c63ff"/><circle cx="3.688" cy="3.688" r="3.688" transform="translate(241.492 68.399)" fill="#6c63ff"/><path d="M427.356,630.941c0,.291-.131.526-.292.527H185.792c-.161,0-.292-.236-.292-.527s.131-.527.292-.527H427.064C427.225,630.415,427.355,630.65,427.356,630.941Z" transform="translate(-116.606 -439.261)" fill="#3f3d56"/></g></svg>