<svg xmlns="http://www.w3.org/2000/svg" width="360.133" height="151.712" viewBox="0 0 360.133 151.712"><g transform="translate(0 -73.55)"><path d="M613.612,695.146H254.52a.52.52,0,1,1,0-1.041H613.612a.52.52,0,1,1,0,1.041Z" transform="translate(-254 -471.878)" fill="#ccc"/><path d="M678.878,521.7H467.587a3.383,3.383,0,0,0,0,6.766h5.985v80.926a3.383,3.383,0,1,0,6.766,0l.051-80.926H665.608v80.926a3.383,3.383,0,1,0,6.766,0V530.252l.984-1.784h5.521a3.383,3.383,0,0,0,0-6.766Z" transform="translate(-354.809 -389.198)" fill="#ccc"/><path d="M632.507,484.018h-64a4.679,4.679,0,0,1-4.674-4.674V444.107a4.679,4.679,0,0,1,4.674-4.674h64a4.68,4.68,0,0,1,4.674,4.674v35.237A4.68,4.68,0,0,1,632.507,484.018Z" transform="translate(-402.587 -349.743)" fill="#3f3d56"/><path d="M635.822,446.345h-64a1.08,1.08,0,0,0-1.077,1.077V482.66a1.08,1.08,0,0,0,1.077,1.077h64a1.08,1.08,0,0,0,1.077-1.077V447.422a1.08,1.08,0,0,0-1.077-1.077Z" transform="translate(-405.903 -353.058)" fill="#fff"/><path d="M632.861,493.84s-7.662-1.766-11.876,1.471,5.363,10.593,5.363,10.593Z" transform="translate(-429.484 -375.605)" fill="#2f2e41"/><circle cx="7.227" cy="7.227" r="7.227" transform="translate(191.066 100.444)" fill="#a0616a"/><path d="M620.559,452.155a5.151,5.151,0,0,1,4.75-2.527,10.094,10.094,0,0,1,2.87.8l4.724,1.843c1.223.477,2.562,1.061,3.092,2.261a5.1,5.1,0,0,1-.247,3.56l-1.768,5.513a16.785,16.785,0,0,0-1-3.642,5.639,5.639,0,0,0-2.448-2.792,7.982,7.982,0,0,0-4.051-.55c-1.951.094-4.073.342-5.459,1.718a5.671,5.671,0,0,0-1.439,2.81,16.927,16.927,0,0,0-.3,3.181,26.369,26.369,0,0,1-2.014-4.317,10.679,10.679,0,0,1-.748-3.495,4.915,4.915,0,0,1,1.127-3.324,3.224,3.224,0,0,1,3.243-1.021Z" transform="translate(-427.854 -354.628)" fill="#2f2e41"/><path d="M637.13,499.7a1.286,1.286,0,0,0-1.077-.932.46.46,0,0,0-.052-.031L625.212,492.7a1.372,1.372,0,0,0-1.836.473l-2.951,4.778-4.444-4.444-.071-.071a1.372,1.372,0,0,0-1.757-.154l-8.867,6.209c-.016,0-.031.005-.047.005a1.891,1.891,0,0,0-1.577,1.764l-.229,4.627h35.409Z" transform="translate(-421.58 -375.203)" fill="#ac5ee7"/><path d="M635.25,516.151h-6.832a.719.719,0,0,0-.719-.719h-2.157a.719.719,0,0,0-.719.719h-2.157a.719.719,0,0,0-.719-.719h-2.157a.719.719,0,0,0-.719.719h-2.157a.719.719,0,0,0-.719-.719h-2.157a.719.719,0,0,0-.719.719h-2.157a.719.719,0,0,0-.719-.719h-2.157a.719.719,0,0,0-.719.719h-2.157a.719.719,0,0,0-.719-.719H602.53a.719.719,0,0,0-.719.719h-2.157a.719.719,0,0,0-.719-.719h-2.157a.719.719,0,0,0-.719.719H593.9a.719.719,0,0,0-.719-.719h-2.157a.719.719,0,0,0-.719.719h-2.157a.719.719,0,0,0-.719-.719h-2.157a.719.719,0,0,0-.719.719h-2.157a.719.719,0,0,0-.719-.719h-2.157a.719.719,0,0,0-.719.719h-2.157a.719.719,0,0,0-.719-.719h-2.157a.719.719,0,0,0-.719.719h-2.158a.719.719,0,0,0-.719-.719h-2.157a.719.719,0,0,0-.719.719h-6.832a2.157,2.157,0,0,0,0,4.315H635.25a2.157,2.157,0,0,0,0-4.315Z" transform="translate(-399.937 -386.191)" fill="#3f3d56"/><path d="M501.172,492.736v14.325H465.283a7.167,7.167,0,1,1,0-14.325Z" transform="translate(-351.77 -375.304)" fill="#f2f2f2"/><path d="M501.343,506.65a.551.551,0,0,1-.551.551H463.933a7.548,7.548,0,1,1,0-15.1h36.859a.551.551,0,0,1,0,1.1H463.933a6.446,6.446,0,0,0,0,12.893h36.859A.551.551,0,0,1,501.343,506.65Z" transform="translate(-351.059 -375.004)" fill="#ffff4e"/><path d="M505.437,498.889H466.869a.11.11,0,0,1,0-.22h38.567a.11.11,0,0,1,0,.22Z" transform="translate(-356.034 -378.151)" fill="#ccc"/><path d="M505.437,503.971H466.869a.11.11,0,0,1,0-.22h38.567a.11.11,0,0,1,0,.22Z" transform="translate(-356.034 -380.589)" fill="#ccc"/><path d="M505.437,509.052H466.869a.11.11,0,0,1,0-.22h38.567a.11.11,0,0,1,0,.22Z" transform="translate(-356.034 -383.025)" fill="#ccc"/><path d="M505.437,514.134H466.869a.11.11,0,1,1,0-.22h38.567a.11.11,0,1,1,0,.22Z" transform="translate(-356.034 -385.463)" fill="#ccc"/><path d="M488.172,463.736v14.325H452.283a7.167,7.167,0,1,1,0-14.325Z" transform="translate(-345.535 -361.397)" fill="#f2f2f2"/><path d="M488.343,477.65a.551.551,0,0,1-.551.551H450.933a7.548,7.548,0,0,1,0-15.1h36.859a.551.551,0,0,1,0,1.1H450.933a6.446,6.446,0,1,0,0,12.893h36.859A.551.551,0,0,1,488.343,477.65Z" transform="translate(-344.825 -361.096)" fill="#3f3d56"/><path d="M492.437,469.889H453.869a.11.11,0,0,1,0-.22h38.567a.11.11,0,0,1,0,.22Z" transform="translate(-349.8 -364.244)" fill="#ccc"/><path d="M492.437,474.971H453.869a.11.11,0,0,1,0-.22h38.567a.11.11,0,0,1,0,.22Z" transform="translate(-349.8 -366.681)" fill="#ccc"/><path d="M492.437,480.052H453.869a.11.11,0,0,1,0-.22h38.567a.11.11,0,0,1,0,.22Z" transform="translate(-349.8 -369.118)" fill="#ccc"/><path d="M492.437,485.134H453.869a.11.11,0,0,1,0-.22h38.567a.11.11,0,0,1,0,.22Z" transform="translate(-349.8 -371.555)" fill="#ccc"/><path d="M560.825,604.677v-12.49a2.082,2.082,0,0,0-2.082-2.082H511.385a2.082,2.082,0,0,0-2.082,2.082v12.49Z" transform="translate(-376.437 -422.002)" fill="#ccc"/><rect width="51.522" height="16.133" transform="translate(132.866 187.358)" fill="#ccc"/><path d="M509.3,667.1V679.6a2.082,2.082,0,0,0,2.082,2.082h47.359a2.082,2.082,0,0,0,2.082-2.082V667.1Z" transform="translate(-376.437 -458.93)" fill="#ccc"/><circle cx="1.561" cy="1.561" r="1.561" transform="translate(156.805 174.347)" fill="#fff"/><circle cx="1.561" cy="1.561" r="1.561" transform="translate(156.805 195.164)" fill="#fff"/><circle cx="1.561" cy="1.561" r="1.561" transform="translate(156.889 215.541)" fill="#fff"/><path d="M557.172,562.736v14.325H521.283a7.167,7.167,0,1,1,0-14.325Z" transform="translate(-378.626 -408.875)" fill="#f2f2f2"/><path d="M557.343,576.65a.551.551,0,0,1-.551.551H519.933a7.548,7.548,0,1,1,0-15.1h36.859a.551.551,0,1,1,0,1.1H519.933a6.446,6.446,0,1,0,0,12.892h36.859a.551.551,0,0,1,.551.551Z" transform="translate(-377.915 -408.574)" fill="#3f3d56"/><path d="M561.437,568.889H522.869a.11.11,0,0,1,0-.22h38.567a.11.11,0,0,1,0,.22Z" transform="translate(-382.891 -411.722)" fill="#ccc"/><path d="M561.437,573.971H522.869a.11.11,0,0,1,0-.22h38.567a.11.11,0,0,1,0,.22Z" transform="translate(-382.891 -414.159)" fill="#ccc"/><path d="M561.437,579.052H522.869a.11.11,0,0,1,0-.22h38.567a.11.11,0,0,1,0,.22Z" transform="translate(-382.891 -416.596)" fill="#ccc"/><path d="M561.437,584.134H522.869a.11.11,0,0,1,0-.22h38.567a.11.11,0,0,1,0,.22Z" transform="translate(-382.891 -419.033)" fill="#ccc"/><path d="M739.857,513.1H723.505a1.011,1.011,0,0,0-.448.1l-4.127,2.066a.752.752,0,0,0,0,1.384l4.127,2.066a1.01,1.01,0,0,0,.448.1h16.352a.858.858,0,0,0,.906-.8V513.9A.858.858,0,0,0,739.857,513.1Z" transform="translate(-476.751 -385.074)" fill="#3f3d56"/><path d="M757.466,513.9v4.132a.858.858,0,0,1-.906.8H753.3V513.1h3.258A.858.858,0,0,1,757.466,513.9Z" transform="translate(-493.454 -385.074)" fill="#ffff4e"/><path d="M756.141,453.273a5.726,5.726,0,0,1,7.749,3.6,5.484,5.484,0,0,1,.167.747l22.866,11.339,5.292-3.507,6.584,7.58-8.08,6.562a5.8,5.8,0,0,1-6.922.267l-23.2-16.044a5.464,5.464,0,0,1-.528.193,5.726,5.726,0,0,1-7.291-4.455,5.554,5.554,0,0,1-.085-.7A5.743,5.743,0,0,1,756.141,453.273Z" transform="translate(-493.157 -356.156)" fill="#ffb8b8"/><path d="M801.684,587.853H776.7c0,.718-25.75,1.3-25.75,1.3a6.691,6.691,0,0,0-1.1,1.041,6.458,6.458,0,0,0-1.51,4.163V595.4a6.508,6.508,0,0,0,6.505,6.505h46.838a6.511,6.511,0,0,0,6.505-6.505v-1.041A6.514,6.514,0,0,0,801.684,587.853Z" transform="translate(-491.074 -420.922)" fill="#3f3d56"/><rect width="6.765" height="43.716" transform="translate(290.197 224.439) rotate(180)" fill="#3f3d56"/><path d="M761.617,691.885c0,.731,10.252.283,22.9.283s22.9.448,22.9-.283-10.252-6.528-22.9-6.528S761.617,691.153,761.617,691.885Z" transform="translate(-497.441 -467.683)" fill="#3f3d56"/><path d="M510.676,472.743H504.3l-3.036-16.548h9.417Z" transform="translate(-240.393 -253.666)" fill="#ffb8b8"/><path d="M757.522,692.318H736.949v-.26a8.007,8.007,0,0,1,8.008-8.007h12.565Z" transform="translate(-485.612 -467.056)" fill="#2f2e41"/><path d="M742.473,614.094l-12.72-28.523a10.453,10.453,0,0,1,4.589-13.419l27.589-14.794,12.59-1.071,11.613-1.056.084.142a11.754,11.754,0,0,1,.916,9.223c-1.28,3.587-4.61,6.389-9.9,8.328-12.342,4.525-26.6,8.393-32.155,9.845a1.8,1.8,0,0,0-1.151.916,1.821,1.821,0,0,0-.1,1.457l11.817,26.549a2.342,2.342,0,0,1-1.983,3.138l-8.83.643q-.112.011-.224.011A2.341,2.341,0,0,1,742.473,614.094Z" transform="translate(-481.732 -405.278)" fill="#2f2e41"/><path d="M516.676,472.743H510.3l-3.036-16.548h9.416Z" transform="translate(-243.271 -253.666)" fill="#ffb8b8"/><path d="M763.522,692.318H742.949v-.26a8.007,8.007,0,0,1,8.008-8.007h12.565Z" transform="translate(-488.489 -467.056)" fill="#2f2e41"/><path d="M749.473,617.094l-12.72-28.523a10.453,10.453,0,0,1,4.589-13.419l27.589-14.794,12.59-1.071,11.613-1.056.084.142a11.755,11.755,0,0,1,.916,9.223c-1.28,3.587-4.61,6.389-9.9,8.328-12.341,4.525-26.6,8.393-32.155,9.845a1.8,1.8,0,0,0-1.151.916,1.821,1.821,0,0,0-.1,1.457l11.817,26.549a2.342,2.342,0,0,1-1.983,3.138l-8.83.643q-.112.011-.224.011A2.34,2.34,0,0,1,749.473,617.094Z" transform="translate(-485.089 -406.716)" fill="#2f2e41"/><path d="M738.178,470.6a87.174,87.174,0,0,1-12.529-23.383,2.239,2.239,0,0,1,1.057-2.7l18.29-9.8a2.21,2.21,0,0,1,1.939-.079,2.248,2.248,0,0,1,1.281,1.5,53.255,53.255,0,0,0,11.681,21.8,2.248,2.248,0,0,1,.541,1.9,2.21,2.21,0,0,1-1.14,1.571l-18.291,9.8A2.239,2.239,0,0,1,738.178,470.6Z" transform="translate(-480.134 -347.355)" fill="#ccc"/><path d="M740.864,471.1a.676.676,0,0,0,.844.174l18.291-9.8a.648.648,0,0,0,.34-.467.686.686,0,0,0-.169-.587,54.82,54.82,0,0,1-12.025-22.443.686.686,0,0,0-.395-.466.649.649,0,0,0-.578.024l-18.29,9.8a.676.676,0,0,0-.323.8A85.615,85.615,0,0,0,740.864,471.1Z" transform="translate(-481.572 -348.794)" fill="#fff"/><path d="M849.853,487.776l-14.325,5.443-3.5-9.715a5.812,5.812,0,0,1,2.6-7.025h0a5.812,5.812,0,0,1,7.423,1.449Z" transform="translate(-531.045 -367.148)" fill="#ffff4e"/><path d="M794.838,526.043a2.6,2.6,0,0,1-1.084-1.847c-1.835-17.127-.557-30.53,3.906-40.975a13.007,13.007,0,0,1,8.622-7.379l11.579-.584.06.029a13.534,13.534,0,0,1,7.4,14.357c-3.724,9.817-6.843,20.038-4.464,28.283A2.665,2.665,0,0,1,820.6,520a2.542,2.542,0,0,1-1.621,1.2l-22.055,5.247a2.583,2.583,0,0,1-2.09-.4Z" transform="translate(-512.466 -366.924)" fill="#ac5ee7"/><circle cx="12.782" cy="12.782" r="12.782" transform="translate(288.749 78.443)" fill="#ffb8b8"/><path d="M753.816,458.569l-9.962,4.4a1.563,1.563,0,0,1-2.059-.8l-.246-.558a1.563,1.563,0,0,1,.8-2.059l9.962-4.4a1.563,1.563,0,0,1,2.059.8l.246.558a1.563,1.563,0,0,1-.8,2.059Z" transform="translate(-487.754 -357.219)" fill="#ccc"/><path d="M760.816,471.569l-9.962,4.4a1.563,1.563,0,0,1-2.059-.8l-.246-.558a1.563,1.563,0,0,1,.8-2.059l9.962-4.4a1.563,1.563,0,0,1,2.059.8l.246.558a1.563,1.563,0,0,1-.8,2.059Z" transform="translate(-491.111 -363.454)" fill="#ccc"/><path d="M759.559,499.2l-22.208-17.521a5.493,5.493,0,0,1-.539.159,5.739,5.739,0,0,1-4.589-.88,5.679,5.679,0,0,1-2.408-4.025,5.725,5.725,0,0,1,11.259-1.978,5.507,5.507,0,0,1,.119.756L763.3,488.471l5.5-3.168,6.095,7.979-8.542,6.089a5.694,5.694,0,0,1-6.8-.166Z" transform="translate(-482.171 -364.664)" fill="#ffb8b8"/><path d="M810.009,501.029l-12.672-8.617,5.955-8.434a5.812,5.812,0,0,1,7.249-1.894h0A5.812,5.812,0,0,1,813.609,489Z" transform="translate(-514.572 -369.926)" fill="#ffff4e"/><path d="M812.1,424.193c-3.285,2.248-7.6,4.56-10.954,2.165a6.106,6.106,0,0,1-2-7.039c1.607-4.595,6.021-6.617,10.242-8.168,5.488-2.016,11.463-3.619,17.128-2.176s10.672,6.928,9.649,12.684c-.822,4.629-5.188,8.48-4.569,13.14.624,4.69,5.9,7.159,10.555,8s9.867,1.108,13.214,4.452c4.269,4.267,3.2,11.893-.814,16.4s-10.079,6.547-15.953,7.935c-7.783,1.839-16.2,2.806-23.592-.247s-13.144-11.269-11-18.974c.9-3.255,3.035-6.005,5.094-8.683s4.144-5.478,4.93-8.763a9.111,9.111,0,0,0-1.645-7.97,2.309,2.309,0,0,1-.309-2.7Z" transform="translate(-515.256 -334.871)" fill="#2f2e41"/><path d="M330.262,508.685a20.329,20.329,0,0,1-19.631-3.458c-6.876-5.771-9.032-15.279-10.786-24.083l-5.188-26.04,10.862,7.479c7.811,5.379,15.8,10.93,21.207,18.72s7.769,18.426,3.424,26.855" transform="translate(-273.498 -357.259)" fill="#e6e6e6"/><path d="M346.951,570.7c1.1-8.008,2.23-16.119,1.459-24.213-.685-7.188-2.878-14.209-7.343-19.966a33.212,33.212,0,0,0-8.521-7.722c-.852-.538-1.636.813-.788,1.348a31.574,31.574,0,0,1,12.49,15.07c2.719,6.916,3.156,14.455,2.687,21.8-.283,4.443-.884,8.857-1.489,13.265a.809.809,0,0,0,.545.96.786.786,0,0,0,.96-.545Z" transform="translate(-291.116 -387.745)" fill="#f2f2f2"/><path d="M299.705,576.479a14.965,14.965,0,0,1-13.039,6.73c-6.6-.313-12.1-4.92-17.057-9.294l-14.652-12.936,9.7-.464c6.973-.334,14.127-.645,20.769,1.506s12.768,7.326,13.982,14.2" transform="translate(-254.459 -407.698)" fill="#e6e6e6"/><path d="M337.352,605.217c-5.292-9.363-11.429-19.769-22.4-23.095a24.992,24.992,0,0,0-9.42-.973c-1,.086-.75,1.628.248,1.542a23.218,23.218,0,0,1,15.033,3.977,39.074,39.074,0,0,1,10.333,11.15c1.711,2.606,3.244,5.322,4.777,8.034C336.415,606.719,337.847,606.094,337.352,605.217Z" transform="translate(-278.41 -417.661)" fill="#f2f2f2"/><path d="M360.767,632.687a11.332,11.332,0,0,0-6.944-9.491v-5.413h-9.079v5.583a11.326,11.326,0,0,0-6.566,9.32L336.044,657.5H362.9Z" transform="translate(-293.346 -435.276)" fill="#f2f2f2"/></g></svg>